<svg xmlns="http://www.w3.org/2000/svg" id="Layer_1" viewBox="0 0 244 126.28" width="244" height="126.28"><defs><style>.cls-1{fill:#fff}</style></defs><path d="M230.76 0a13.31 13.31 0 0 0-13.24 13.24 13.71 13.71 0 0 0 6.37 11.46l-8.4 26.47a35.84 35.84 0 0 0-4.33-1l-5.35-20.36a13.3 13.3 0 0 0-6.36-24.95 13.48 13.48 0 0 0-13.24 13.24 13.48 13.48 0 0 0 13.24 13.23h.25l5.09 19.1c-8.4 2-15.27 9.93-21.64 17.06-6.87 7.63-14 15.78-22.4 17-2-22.91-9.68-41-22.92-54C116.45 9.67 88.7 9.93 87.68 9.93A60.19 60.19 0 0 0 27.6 70a43.14 43.14 0 0 0 12.47 30.3C19.19 106.42 6 113.55.61 121.19a3.22 3.22 0 0 0 2.55 5.09H216.5a3.27 3.27 0 0 0 3.06-2.8 3.31 3.31 0 0 0-2.29-3.57c-5.35-1.52-13.75-5.34-15.53-8.91a2.11 2.11 0 0 1 0-1.78c.76-1.78 3.82-5.6 7.13-9.42 8.65-10.18 20.36-24.44 18.84-35.64A14.3 14.3 0 0 0 221.09 54h-.26l8.91-27.49h1A13.31 13.31 0 0 0 244 13.24 13.31 13.31 0 0 0 230.76 0zm-38.44 18.08a7.11 7.11 0 0 1 7.13-7.08 7 7 0 1 1 0 14 7.07 7.07 0 0 1-7.13-6.92zM87.43 16.55c2.29 0 27 .51 45.57 18.84 13.75 13.49 20.87 33.35 21.64 58.81h-48.88a42.91 42.91 0 0 0 7.38-23.93 26 26 0 0 0-51.94 0 3.1 3.1 0 0 0 3.06 3 3.27 3.27 0 0 0 3-3 19.61 19.61 0 1 1 39.21 0 36.66 36.66 0 0 1-73.32 0 54.33 54.33 0 0 1 54.28-53.72zM221.6 65.18c1.27 8.65-9.93 21.89-17.32 30.8-3.82 4.58-6.87 8.15-7.89 10.69a7.83 7.83 0 0 0 0 7.13 17.19 17.19 0 0 0 5.86 6.37H10.79c6.88-5.09 18.84-10.19 34.88-14.51a42.28 42.28 0 0 0 24.44 7.63 41.85 41.85 0 0 0 30.3-12.73h57.28a3.09 3.09 0 0 0 3.06-3 52.2 52.2 0 0 0-.26-6.37c10.95-1.52 19.35-10.94 27-19.34 11.2-12.73 18.59-19.86 30-12.23a7 7 0 0 1 4.11 5.56zm9.16-44.81a7.12 7.12 0 0 1-7.13-7.13 7.13 7.13 0 0 1 14.26 0 7.12 7.12 0 0 1-7.13 7.13z" class="cls-1"/></svg>